.
..............................Site Info...........................

 -   http://www.scenetime.com  *_*    

Scenetime .Always on time . friendly online private torrent community ..

     We care to share . Join us on  http://www.scenetime.com 

    Be the first to get new release at  http://www.scenetime.com

        Seed back for speed


...................................NFO:.................................................[img]http://i.imgrz.com/95edf.jpg[/img]

[code]

Lizzie.2012.DVDRip.XViD.AC3-26k
 
http://www.imdb.com/title/tt1582213/


Plot:
ON AUGUST 4TH, 1892, ANDREW JACKSON BORDEN AND ABBY DURFEE BORDEN WERE BRUTALLY MURDERED WITH AN OLD HOUSEHOLD HATCHET



Sources - VIDEO: Lizzie.2012.Pal.DVDR-Blackjesus ....Thanks :P
          AUDIO: Lizzie.2012.Pal.DVDR-Blackjesus ....Thanks :P





Format                                   : AVI
Format/Info                              : Audio Video Interleave
File size                                : 1.30 GiB
Duration                                 : 1h 22mn
Overall bit rate                         : 2 255 Kbps

Video
ID                                       : 0
Format                                   : MPEG-4 Visual
Format profile                           : Advanced Simple@L5
Format settings, BVOP                    : 2
Format settings, QPel                    : No
Format settings, GMC                     : No warppoints
Format settings, Matrix                  : Default (H.263)
Codec ID                                 : XVID
Codec ID/Hint                            : XviD
Duration                                 : 1h 22mn
Bit rate                                 : 1 799 Kbps
Width                                    : 720 pixels
Height                                   : 352 pixels
Display aspect ratio                     : 2.045
Frame rate                               : 25.000 fps
Color space                              : YUV
Chroma subsampling                       : 4:2:0
Bit depth                                : 8 bits
Scan type                                : Progressive
Compression mode                         : Lossy
Bits/(Pixel*Frame)                       : 0.284
Stream size                              : 1.04 GiB (80%)
Writing library                          : XviD 1.2.1 (UTC 2008-12-04)

Audio
ID                                       : 1
Format                                   : AC-3
Format/Info                              : Audio Coding 3
Mode extension                           : CM (complete main)
Codec ID                                 : 2000
Duration                                 : 1h 22mn
Bit rate mode                            : Constant
Bit rate                                 : 448 Kbps
Channel(s)                               : 6 channels
Channel positions                        : Front: L C R, Side: L R, LFE
Sampling rate                            : 48.0 KHz
Bit depth                                : 16 bits
Compression mode                         : Lossy
Stream size                              : 265 MiB (20%)
Alignment                                : Aligned on interleaves
Interleave, duration                     : 64 ms (1.60 video frames)
Interleave, preload duration             : 192 ms



Notes -

Thanks toour bro Blackjesus passing us the vobs for the movie.... 
Did out thing... turned out real nice....   :P


Enjoy!!


[/code]

Screenshots:

[img]http://i.imgrz.com/EHTY3.png[/img]
[img]http://i.imgrz.com/Q8Tdg.png[/img]
[img]http://i.imgrz.com/HzRgj.png[/img]
[img]http://i.imgrz.com/63mfB.png[/img]
[img]http://i.imgrz.com/5epnk.jpg[/img]



Greetz:
Xtreme Encode|FYA|ILLUMANTI|CM8|RX|VISION|HDSCENE|xTriLL|DTRG|CRYS|REMIXHD|BIDA|RX|REFILL|INSPiRAL|SIC|
|HOPE|Anonymous|GooN|NOIR|Blackjesus|Gabroo Punjab Deh|UNiQUE|DQ1|LEGiON|

To all the people who have helped me  you know who you are

Anything to offer email us @: 26k@hushmail.me